<svg width="1916" height="253" viewBox="0 0 1916 253" fill="none" xmlns="http://www.w3.org/2000/svg">
<path d="M1916 36.1429H1870.36C1824.72 36.1429 1733.71 36.1429 1641.91 72.2857C1551.03 108.429 1459.62 180.714 1369.14 204.772C1277.33 229.281 1185.53 204.433 1095.05 174.728C1003.64 144.571 912.761 108.429 820.953 72.2857C729.943 36.1429 638.667 4.30856e-06 546.858 24.0576C456.248 48.567 364.572 132.147 274.094 138.585C182.419 144.571 91.8083 72.2857 45.2389 36.1429L0 0V253H45.6381C91.2761 253 182.286 253 274.094 253C364.971 253 456.38 253 546.858 253C638.667 253 730.475 253 820.953 253C912.362 253 1003.24 253 1095.05 253C1186.06 253 1277.33 253 1369.14 253C1459.75 253 1551.43 253 1641.91 253C1733.58 253 1824.19 253 1870.76 253H1916V36.1429Z" fill="#FFF8D3"/>
</svg>
